# Blender 4.3.2
# www.blender.org
mtllib untitled.mtl
o Cube
v -4.260021 -0.859837 12.086654
v -4.260021 0.859837 12.086654
v -4.260021 -0.859837 10.366981
v -4.260021 0.859837 10.366981
v -3.799504 -0.859837 12.086654
v -3.799504 0.859837 12.086654
v -3.799504 -0.859837 10.366981
v -3.799504 0.859837 10.366981
v -4.260021 0.859837 6.148190
v -4.260021 -0.859837 6.148190
v -3.799504 -0.859837 6.148190
v -3.799504 0.859837 6.148190
v -4.260021 0.859837 5.717238
v -4.260021 -0.859837 5.717238
v -3.799504 -0.859837 5.717238
v -3.799504 0.859837 5.717238
v -6.346734 0.859837 6.148190
v -6.346734 -0.859837 6.148190
v -6.346734 0.859837 5.717238
v -6.346734 -0.859837 5.717238
v -6.766345 0.859837 6.148190
v -6.766345 -0.859837 6.148190
v -6.766345 0.859837 5.717238
v -6.766345 -0.859837 5.717238
v -6.346734 0.859837 -1.053239
v -6.346734 -0.859837 -1.053239
v -6.766345 0.859837 -1.053239
v -6.766345 -0.859837 -1.053239
v -6.346734 0.859837 -1.472850
v -6.346734 -0.859837 -1.472850
v -6.766345 0.859837 -1.472850
v -6.766345 -0.859837 -1.472850
v -1.696991 0.859837 -1.053239
v -1.696991 -0.859837 -1.053239
v -1.696991 0.859837 -1.472850
v -1.696991 -0.859837 -1.472850
v -1.288721 0.859837 -1.053239
v -1.288721 -0.859837 -1.053239
v -1.288721 0.859837 -1.472850
v -1.288721 -0.859837 -1.472850
v -1.696991 0.859837 -0.622288
v -1.696991 -0.859837 -0.622288
v -1.288721 0.859837 -0.622288
v -1.288721 -0.859837 -0.622288
v 0.401063 0.859837 -1.053239
v 0.401063 -0.859837 -1.053239
v 0.401063 0.859837 -0.622288
v 0.401063 -0.859837 -0.622288
v 0.866038 0.859837 -1.053239
v 0.866038 -0.859837 -1.053239
v 0.866038 0.859837 -0.622288
v 0.866038 -0.859837 -0.622288
v 0.401063 0.859837 -1.472850
v 0.401063 -0.859837 -1.472850
v 0.866038 0.859837 -1.472850
v 0.866038 -0.859837 -1.472850
v 7.613834 0.859837 -1.053239
v 7.613834 -0.859837 -1.053239
v 7.613834 0.859837 -1.472850
v 7.613834 -0.859837 -1.472850
v 8.044786 0.859837 -1.053239
v 8.044786 -0.859837 -1.053239
v 8.044786 0.859837 -1.472850
v 8.044786 -0.859837 -1.472850
v 7.613834 0.859837 -5.725663
v 7.613834 -0.859837 -5.725663
v 8.044786 0.859837 -5.725663
v 8.044786 -0.859837 -5.725663
v 7.613834 0.859837 -6.133933
v 7.613834 -0.859837 -6.133933
v 8.044786 0.859837 -6.133933
v 8.044786 -0.859837 -6.133933
v 10.176863 0.859837 -5.725663
v 10.176863 -0.859837 -5.725663
v 10.176863 0.859837 -6.133933
v 10.176863 -0.859837 -6.133933
v 10.585134 0.859837 -5.725663
v 10.585134 -0.859837 -5.725663
v 10.585134 0.859837 -6.133933
v 10.585134 -0.859837 -6.133933
v 10.176863 0.859837 -12.087869
v 10.176863 -0.859837 -12.087869
v 10.585134 0.859837 -12.087869
v 10.585134 -0.859837 -12.087869
v 10.176863 0.859837 -12.484797
v 10.176863 -0.859837 -12.484797
v 10.585134 0.859837 -12.484797
v 10.585134 -0.859837 -12.484797
v 4.245606 0.859837 -12.087869
v 4.245606 -0.859837 -12.087869
v 4.245606 0.859837 -12.484797
v 4.245606 -0.859837 -12.484797
v 3.825995 0.859837 -12.087869
v 3.825995 -0.859837 -12.087869
v 3.825995 0.859837 -12.484797
v 3.825995 -0.859837 -12.484797
v 4.245606 0.859837 -9.967134
v 4.245606 -0.859837 -9.967134
v 3.825995 0.859837 -9.967134
v 3.825995 -0.859837 -9.967134
v 4.245606 0.859837 -9.558471
v 4.245606 -0.859837 -9.558471
v 3.825995 0.859837 -9.558471
v 3.825995 -0.859837 -9.558471
v -0.857769 0.859837 -9.967134
v -0.857769 -0.859837 -9.967134
v -0.857769 0.859837 -9.558471
v -0.857769 -0.859837 -9.558471
v -1.277380 0.859837 -9.967134
v -1.277380 -0.859837 -9.967134
v -1.277380 0.859837 -9.558471
v -1.277380 -0.859837 -9.558471
v -0.857769 0.859837 -3.173581
v -0.857769 -0.859837 -3.173581
v -1.277380 0.859837 -3.173581
v -1.277380 -0.859837 -3.173581
v -0.857769 0.859837 -2.763937
v -0.857769 -0.859837 -2.763937
v -1.277380 0.859837 -2.763937
v -1.277380 -0.859837 -2.763937
v -1.685650 0.859837 -3.173581
v -1.685650 -0.859837 -3.173581
v -1.685650 0.859837 -2.763937
v -1.685650 -0.859837 -2.763937
v -1.277380 0.859837 -2.332985
v -1.277380 -0.859837 -2.332985
v -1.685650 0.859837 -2.332985
v -1.685650 -0.859837 -2.332985
v -7.625150 0.859837 -2.763937
v -7.625150 -0.859837 -2.763937
v -7.625150 0.859837 -2.332985
v -7.625150 -0.859837 -2.332985
v -8.051744 0.859837 -2.763937
v -8.051744 -0.859837 -2.763937
v -8.051744 0.859837 -2.332985
v -8.051744 -0.859837 -2.332985
v -7.625150 0.859837 5.707666
v -7.625150 -0.859837 5.707666
v -8.051744 0.859837 5.707666
v -8.051744 -0.859837 5.707666
v -7.625150 0.859837 6.138618
v -7.625150 -0.859837 6.138618
v -8.051744 0.859837 6.138618
v -8.051744 -0.859837 6.138618
v -10.172480 0.859837 5.707666
v -10.172480 -0.859837 5.707666
v -10.172480 0.859837 6.138618
v -10.172480 -0.859837 6.138618
v -10.592091 0.859837 5.707666
v -10.592091 -0.859837 5.707666
v -10.592091 0.859837 6.138618
v -10.592091 -0.859837 6.138618
v -10.172480 0.859837 12.058533
v -10.172480 -0.859837 12.058533
v -10.592091 0.859837 12.058533
v -10.592091 -0.859837 12.058533
v -10.172480 0.859837 12.466803
v -10.172480 -0.859837 12.466803
v -10.592091 0.859837 12.466803
v -10.592091 -0.859837 12.466803
v -4.258795 0.859837 12.058533
v -4.258795 -0.859837 12.058533
v -4.258795 0.859837 12.466803
v -4.258795 -0.859837 12.466803
v 0.866038 0.859837 -1.053239
v 0.401063 0.859837 -1.053239
v 0.866038 0.859837 -1.472850
v 0.401063 0.859837 -1.472850
v 0.401063 0.859837 -2.342100
v 0.401063 -0.859837 -2.342100
v 0.866038 0.859837 -2.342100
v 0.866038 -0.859837 -2.342100
v 0.401063 0.859837 -2.775258
v 0.401063 -0.859837 -2.775258
v 0.866038 0.859837 -2.775258
v 0.866038 -0.859837 -2.775258
v 0.401063 0.859837 -3.182164
v 0.401063 -0.859837 -3.182164
v 0.866038 0.859837 -3.182164
v 0.866038 -0.859837 -3.182164
v 0.007284 0.859837 -2.775258
v 0.007284 -0.859837 -2.775258
v 0.007284 0.859837 -3.182164
v 0.007284 -0.859837 -3.182164
v 0.007284 0.859837 -8.255353
v 0.007284 -0.859837 -8.255353
v 0.401063 0.859837 -8.255353
v 0.401063 -0.859837 -8.255353
v 0.007284 0.859837 -8.681947
v 0.007284 -0.859837 -8.681947
v 0.401063 0.859837 -8.681947
v 0.401063 -0.859837 -8.681947
v 3.807255 0.859837 -8.255353
v 3.807255 -0.859837 -8.255353
v 3.807255 0.859837 -8.681947
v 3.807255 -0.859837 -8.681947
v 4.240413 0.859837 -8.255353
v 4.240413 -0.859837 -8.255353
v 4.240413 0.859837 -8.681947
v 4.240413 -0.859837 -8.681947
v 3.807255 0.859837 -6.135509
v 3.807255 -0.859837 -6.135509
v 4.240413 0.859837 -6.135509
v 4.240413 -0.859837 -6.135509
v 3.807255 0.859837 -5.714290
v 3.807255 -0.859837 -5.714290
v 4.240413 0.859837 -5.714290
v 4.240413 -0.859837 -5.714290
v 6.347131 0.859837 -6.135509
v 6.347131 -0.859837 -6.135509
v 6.347131 0.859837 -5.714290
v 6.347131 -0.859837 -5.714290
v 6.780289 0.859837 -6.135509
v 6.780289 -0.859837 -6.135509
v 6.780289 0.859837 -5.714290
v 6.780289 -0.859837 -5.714290
v 6.105490 0.859837 -2.342100
v 6.105490 -0.859837 -2.342100
v 6.105490 0.859837 -2.775258
v 6.105490 -0.859837 -2.775258
v 6.347131 0.859837 -2.810167
v 6.347131 -0.859837 -2.810167
v 6.780289 0.859837 -2.810167
v 6.780289 -0.859837 -2.810167
v 6.329862 0.859837 -2.342100
v 6.329862 -0.859837 -2.342100
v 6.329862 0.859837 -2.775258
v 6.329862 -0.859837 -2.775258
v 6.346792 0.859837 -2.342100
v 6.346792 -0.859837 -2.342100
v 6.346792 0.859837 -2.775258
v 6.346792 -0.859837 -2.775258
v 6.347131 0.859837 -2.344938
v 6.347131 -0.859837 -2.344938
v 6.780289 0.859837 -2.344938
v 6.780289 -0.859837 -2.344938
vn -1.0000 -0.0000 -0.0000
vn -0.0000 1.0000 -0.0000
vn 1.0000 -0.0000 -0.0000
vn -0.0000 -0.0000 1.0000
vn -0.0000 -1.0000 -0.0000
vn -0.0000 -0.0000 -1.0000
vt 0.375000 0.000000
vt 0.625000 0.000000
vt 0.625000 0.250000
vt 0.375000 0.250000
vt 0.875000 0.500000
vt 0.625000 0.500000
vt 0.375000 0.500000
vt 0.625000 0.750000
vt 0.375000 0.750000
vt 0.625000 1.000000
vt 0.375000 1.000000
vt 0.125000 0.500000
vt 0.125000 0.750000
vt 0.875000 0.750000
s 0
f 1/1/1 2/2/1 4/3/1 3/4/1
f 4/5/2 8/6/2 12/6/2 9/5/2
f 7/7/3 8/6/3 6/8/3 5/9/3
f 5/9/4 6/8/4 2/10/4 1/11/4
f 3/12/5 7/7/5 5/9/5 1/13/5
f 8/6/2 4/5/2 2/14/2 6/8/2
f 11/7/5 10/12/5 14/12/5 15/7/5
f 3/4/1 4/3/1 9/3/1 10/4/1
f 8/6/3 7/7/3 11/7/3 12/6/3
f 7/7/5 3/12/5 10/12/5 11/7/5
f 14/4/6 13/3/6 16/6/6 15/7/6
f 9/5/2 12/6/2 16/6/2 13/5/2
f 14/12/5 10/12/5 18/12/5 20/12/5
f 12/6/3 11/7/3 15/7/3 16/6/3
f 20/12/5 18/12/5 22/12/5 24/12/5
f 13/3/6 14/4/6 20/4/6 19/3/6
f 9/5/2 13/5/2 19/5/2 17/5/2
f 10/4/4 9/3/4 17/3/4 18/4/4
f 22/4/1 21/3/1 23/3/1 24/4/1
f 18/4/4 17/3/4 21/3/4 22/4/4
f 17/5/2 19/5/2 23/5/2 21/5/2
f 23/5/2 19/5/2 25/5/2 27/5/2
f 26/12/5 28/12/5 32/12/5 30/12/5
f 20/12/5 24/12/5 28/12/5 26/12/5
f 24/4/1 23/3/1 27/3/1 28/4/1
f 19/3/3 20/4/3 26/4/3 25/3/3
f 29/3/6 30/4/6 32/4/6 31/3/6
f 30/4/6 29/3/6 35/3/6 36/4/6
f 27/5/2 25/5/2 29/5/2 31/5/2
f 28/4/1 27/3/1 31/3/1 32/4/1
f 35/5/2 33/5/2 37/5/2 39/5/2
f 26/12/5 30/12/5 36/12/5 34/12/5
f 25/3/4 26/4/4 34/4/4 33/3/4
f 29/5/2 25/5/2 33/5/2 35/5/2
f 37/3/3 38/4/3 40/4/3 39/3/3
f 36/4/6 35/3/6 39/3/6 40/4/6
f 34/12/5 36/12/5 40/12/5 38/12/5
f 37/5/2 33/5/2 41/5/2 43/5/2
f 41/3/4 42/4/4 44/4/4 43/3/4
f 37/5/2 43/5/2 47/5/2 45/5/2
f 34/12/5 38/12/5 44/12/5 42/12/5
f 33/3/1 34/4/1 42/4/1 41/3/1
f 48/12/5 46/12/5 50/12/5 52/12/5
f 38/4/6 37/3/6 45/3/6 46/4/6
f 43/3/4 44/4/4 48/4/4 47/3/4
f 44/12/5 38/12/5 46/12/5 48/12/5
f 50/4/3 49/3/3 51/3/3 52/4/3
f 47/3/4 48/4/4 52/4/4 51/3/4
f 45/5/2 47/5/2 51/5/2 49/5/2
f 50/12/5 46/12/5 54/12/5 56/12/5
f 174/4/4 173/3/4 181/3/4 182/4/4
f 50/12/5 56/12/5 60/12/5 58/12/5
f 53/3/2 45/3/2 166/3/2 168/3/2
f 46/4/1 45/3/1 53/3/1 54/4/1
f 60/4/1 59/3/1 65/3/1 66/4/1
f 49/3/4 50/4/4 58/4/4 57/3/4
f 56/4/6 55/3/6 59/3/6 60/4/6
f 55/5/2 49/5/2 57/5/2 59/5/2
f 61/3/3 62/4/3 64/4/3 63/3/3
f 58/12/5 60/12/5 64/12/5 62/12/5
f 57/3/4 58/4/4 62/4/4 61/3/4
f 59/5/2 57/5/2 61/5/2 63/5/2
f 68/12/5 66/12/5 70/12/5 72/12/5
f 59/5/2 63/5/2 67/5/2 65/5/2
f 64/12/5 60/12/5 66/12/5 68/12/5
f 63/3/3 64/4/3 68/4/3 67/3/3
f 70/4/6 69/3/6 71/3/6 72/4/6
f 71/5/2 67/5/2 73/5/2 75/5/2
f 65/5/2 67/5/2 71/5/2 69/5/2
f 66/4/1 65/3/1 69/3/1 70/4/1
f 74/12/5 76/12/5 80/12/5 78/12/5
f 67/3/4 68/4/4 74/4/4 73/3/4
f 68/12/5 72/12/5 76/12/5 74/12/5
f 72/4/6 71/3/6 75/3/6 76/4/6
f 77/3/3 78/4/3 80/4/3 79/3/3
f 73/3/4 74/4/4 78/4/4 77/3/4
f 75/5/2 73/5/2 77/5/2 79/5/2
f 76/4/1 75/3/1 81/3/1 82/4/1
f 82/4/4 81/3/4 89/3/4 90/4/4
f 80/12/5 76/12/5 82/12/5 84/12/5
f 75/5/2 79/5/2 83/5/2 81/5/2
f 79/3/3 80/4/3 84/4/3 83/3/3
f 86/4/6 85/3/6 87/3/6 88/4/6
f 81/5/2 83/5/2 87/5/2 85/5/2
f 83/3/3 84/4/3 88/4/3 87/3/3
f 84/12/5 82/12/5 86/12/5 88/12/5
f 89/5/2 91/5/2 95/5/2 93/5/2
f 81/5/2 85/5/2 91/5/2 89/5/2
f 85/3/6 86/4/6 92/4/6 91/3/6
f 86/12/5 82/12/5 90/12/5 92/12/5
f 94/4/1 93/3/1 95/3/1 96/4/1
f 89/5/2 93/5/2 99/5/2 97/5/2
f 92/12/5 90/12/5 94/12/5 96/12/5
f 91/3/6 92/4/6 96/4/6 95/3/6
f 99/3/6 100/4/6 106/4/6 105/3/6
f 90/4/3 89/3/3 97/3/3 98/4/3
f 94/12/5 90/12/5 98/12/5 100/12/5
f 93/3/1 94/4/1 100/4/1 99/3/1
f 102/4/4 101/3/4 103/3/4 104/4/4
f 97/5/2 99/5/2 103/5/2 101/5/2
f 98/4/3 97/3/3 101/3/3 102/4/3
f 100/12/5 98/12/5 102/12/5 104/12/5
f 107/5/2 105/5/2 109/5/2 111/5/2
f 100/12/5 104/12/5 108/12/5 106/12/5
f 103/5/2 99/5/2 105/5/2 107/5/2
f 104/4/4 103/3/4 107/3/4 108/4/4
f 109/3/1 110/4/1 112/4/1 111/3/1
f 112/12/5 108/12/5 114/12/5 116/12/5
f 106/12/5 108/12/5 112/12/5 110/12/5
f 105/3/6 106/4/6 110/4/6 109/3/6
f 113/5/2 115/5/2 119/5/2 117/5/2
f 108/4/3 107/3/3 113/3/3 114/4/3
f 107/5/2 111/5/2 115/5/2 113/5/2
f 111/3/1 112/4/1 116/4/1 115/3/1
f 118/4/4 117/3/4 119/3/4 120/4/4
f 114/4/3 113/3/3 117/3/3 118/4/3
f 116/12/5 114/12/5 118/12/5 120/12/5
f 120/4/3 119/3/3 125/3/3 126/4/3
f 121/3/1 122/4/1 124/4/1 123/3/1
f 115/3/6 116/4/6 122/4/6 121/3/6
f 119/5/2 115/5/2 121/5/2 123/5/2
f 116/12/5 120/12/5 124/12/5 122/12/5
f 126/4/4 125/3/4 127/3/4 128/4/4
f 119/5/2 123/5/2 127/5/2 125/5/2
f 124/12/5 120/12/5 126/12/5 128/12/5
f 128/4/4 127/3/4 131/3/4 132/4/4
f 131/5/2 129/5/2 133/5/2 135/5/2
f 127/5/2 123/5/2 129/5/2 131/5/2
f 123/3/6 124/4/6 130/4/6 129/3/6
f 124/12/5 128/12/5 132/12/5 130/12/5
f 133/3/1 134/4/1 136/4/1 135/3/1
f 129/3/6 130/4/6 134/4/6 133/3/6
f 130/12/5 132/12/5 136/12/5 134/12/5
f 136/12/5 132/12/5 138/12/5 140/12/5
f 140/12/5 138/12/5 142/12/5 144/12/5
f 131/5/2 135/5/2 139/5/2 137/5/2
f 135/3/1 136/4/1 140/4/1 139/3/1
f 132/4/3 131/3/3 137/3/3 138/4/3
f 142/4/4 141/3/4 143/3/4 144/4/4
f 143/5/2 139/5/2 145/5/2 147/5/2
f 137/5/2 139/5/2 143/5/2 141/5/2
f 138/4/3 137/3/3 141/3/3 142/4/3
f 147/5/2 145/5/2 149/5/2 151/5/2
f 139/3/6 140/4/6 146/4/6 145/3/6
f 140/12/5 144/12/5 148/12/5 146/12/5
f 144/4/4 143/3/4 147/3/4 148/4/4
f 149/3/1 150/4/1 152/4/1 151/3/1
f 151/3/1 152/4/1 156/4/1 155/3/1
f 146/12/5 148/12/5 152/12/5 150/12/5
f 145/3/6 146/4/6 150/4/6 149/3/6
f 153/5/2 155/5/2 159/5/2 157/5/2
f 152/12/5 148/12/5 154/12/5 156/12/5
f 148/4/3 147/3/3 153/3/3 154/4/3
f 147/5/2 151/5/2 155/5/2 153/5/2
f 158/4/4 157/3/4 159/3/4 160/4/4
f 157/3/4 158/4/4 164/4/4 163/3/4
f 156/12/5 154/12/5 158/12/5 160/12/5
f 155/3/1 156/4/1 160/4/1 159/3/1
f 162/4/3 161/3/3 163/3/3 164/4/3
f 153/5/2 157/5/2 163/5/2 161/5/2
f 154/4/6 153/3/6 161/3/6 162/4/6
f 158/12/5 154/12/5 162/12/5 164/12/5
f 166/5/2 165/5/2 167/5/2 168/5/2
f 55/3/2 53/3/2 168/3/2 167/3/2
f 45/5/2 49/5/2 165/5/2 166/5/2
f 49/5/2 55/5/2 167/5/2 165/5/2
f 169/3/2 171/3/2 175/3/2 173/3/2
f 182/4/1 181/3/1 183/3/1 184/4/1
f 54/12/6 53/3/6 55/3/6 56/12/6
f 170/12/4 172/12/4 171/3/4 169/3/4
f 176/12/5 174/12/5 178/12/5 180/12/5
f 171/3/4 172/12/4 218/12/4 217/3/4
f 172/12/5 170/12/5 174/12/5 176/12/5
f 170/4/1 169/3/1 173/3/1 174/4/1
f 178/4/6 177/3/6 179/3/6 180/4/6
f 177/3/3 178/4/3 188/4/3 187/3/3
f 173/3/2 175/3/2 179/3/2 177/3/2
f 175/3/3 176/4/3 180/4/3 179/3/3
f 173/3/2 177/3/2 183/3/2 181/3/2
f 178/12/5 174/12/5 182/12/5 184/12/5
f 188/12/5 186/12/5 190/12/5 192/12/5
f 183/3/2 177/3/2 187/3/2 185/3/2
f 184/4/1 183/3/1 185/3/1 186/4/1
f 178/12/5 184/12/5 186/12/5 188/12/5
f 191/3/6 192/4/6 190/4/6 189/3/6
f 186/4/1 185/3/1 189/3/1 190/4/1
f 185/3/2 187/3/2 191/3/2 189/3/2
f 191/3/2 187/3/2 193/3/2 195/3/2
f 195/3/2 193/3/2 197/3/2 199/3/2
f 188/12/5 192/12/5 196/12/5 194/12/5
f 192/4/6 191/3/6 195/3/6 196/4/6
f 187/3/4 188/4/4 194/4/4 193/3/4
f 197/3/3 198/4/3 200/4/3 199/3/3
f 196/4/6 195/3/6 199/3/6 200/4/6
f 194/12/5 196/12/5 200/12/5 198/12/5
f 197/3/2 193/3/2 201/3/2 203/3/2
f 201/3/1 202/4/1 206/4/1 205/3/1
f 198/4/3 197/3/3 203/3/3 204/4/3
f 194/12/5 198/12/5 204/12/5 202/12/5
f 193/3/1 194/4/1 202/4/1 201/3/1
f 205/3/4 206/4/4 208/4/4 207/3/4
f 202/12/5 204/12/5 208/12/5 206/12/5
f 207/3/4 208/4/4 212/4/4 211/3/4
f 203/3/2 201/3/2 205/3/2 207/3/2
f 212/12/5 210/12/5 214/12/5 216/12/5
f 208/12/5 204/12/5 210/12/5 212/12/5
f 204/4/6 203/3/6 209/3/6 210/4/6
f 203/3/2 207/3/2 211/3/2 209/3/2
f 214/4/3 213/3/3 215/3/3 216/4/3
f 210/4/6 209/3/6 213/3/6 214/4/6
f 209/3/2 211/3/2 215/3/2 213/3/2
f 212/12/5 216/12/5 224/12/5 222/12/5
f 219/3/2 217/3/2 225/3/2 227/3/2
f 175/3/2 171/3/2 217/3/2 219/3/2
f 176/4/6 175/3/6 219/3/6 220/4/6
f 172/12/5 176/12/5 220/12/5 218/12/5
f 221/3/1 222/4/1 234/4/1 233/3/1
f 216/4/3 215/3/3 223/3/3 224/4/3
f 211/3/1 212/4/1 222/4/1 221/3/1
f 215/3/2 211/3/2 221/3/2 223/3/2
f 226/12/5 228/12/5 232/12/5 230/12/5
f 217/3/4 218/12/4 226/12/4 225/3/4
f 218/12/5 220/12/5 228/12/5 226/12/5
f 220/4/6 219/3/6 227/3/6 228/4/6
f 229/3/3 230/4/3 232/4/3 231/3/3
f 228/4/6 227/3/6 231/3/6 232/4/6
f 227/3/2 225/3/2 229/3/2 231/3/2
f 225/3/4 226/12/4 230/12/4 229/3/4
f 233/3/4 234/4/4 236/4/4 235/3/4
f 223/3/2 221/3/2 233/3/2 235/3/2
f 224/4/3 223/3/3 235/3/3 236/4/3
f 222/12/5 224/12/5 236/12/5 234/12/5
